<?xml version="1.0" encoding="UTF-8" standalone="no"?>
<svg
   width="16"
   height="16"
   viewBox="0 0 16 16"
   version="1.1"
   id="svg7"
   xmlns="http://www.w3.org/2000/svg"
   xmlns:svg="http://www.w3.org/2000/svg">
  <defs
     id="defs1">
    <clipPath
       clipPathUnits="userSpaceOnUse"
       id="a">
      <path
         d="M 0,612.288 H 858.898 V 0 H 0 Z"
         id="path1" />
    </clipPath>
  </defs>
  <g
     clip-path="url(#a)"
     transform="matrix(0.13590022,0,0,-0.13590022,-59.842515,50.588237)"
     id="g7"
     style="stroke-width:9.81111">
    <g
       id="g8"
       transform="matrix(1.0122296,0,0,1.0122296,-6.8250373,1.4662415)"
       style="stroke-width:9.69257">
      <path
         d="m 0,0 c -12.16,0 -23.593,3.942 -33.062,11.4 a 5.000202,5.000202 0 0 0 6.188,7.856 C -19.187,13.2 -9.894,10 0,10 24.059,10 43.632,29.573 43.632,53.632 43.632,77.69 24.059,97.264 0,97.264 c -9.797,0 -19.051,-3.17 -26.763,-9.168 a 4.997,4.997 0 0 0 -7.015,0.877 4.997,4.997 0 0 0 0.877,7.015 c 9.482,7.377 20.86,11.276 32.901,11.276 29.572,0 53.632,-24.06 53.632,-53.632 C 53.632,24.06 29.572,0 0,0"
         style="fill:#000000;fill-opacity:1;fill-rule:nonzero;stroke:none;stroke-width:9.69257"
         transform="translate(504.443,254.512)"
         id="path2" />
      <path
         d="m 0,0 c -6.64,0 -12.48,-2.07 -16.76,-5.91 -4.62,-4.13 -7.42,-10.31 -7.44,-18.19 v -10e-4 c 0,-7.423 -6.37,-14.301 -14.2,-14.301 -3,0 -5.78,0.93 -8.08,2.53 -3.7,2.56 -6.12,6.84 -6.12,11.67 0,7.83 6.37,14.2 14.2,14.2 2.33,0 4.54,-0.54 6.58,-1.61 a 4.985,4.985 0 0 1 6.75,2.1 c 0.74,1.4 0.74,2.99 0.16,4.33 h -0.01 c -0.43,1 -1.21,1.87 -2.25,2.42 a 24.19,24.19 0 0 1 -11.23,2.76 c -13.34,0 -24.2,-10.86 -24.2,-24.2 0,-7.72 3.64,-14.62 9.3,-19.05 a 24.02,24.02 0 0 1 14.9,-5.15 c 7.82,0 14.768,3.739 19.2,9.5 3.12,4.057 4.975,8.765 4.996,14.702 h 0.004 v 0.1 c 0.02,2.93 1.03,5.91 2.84,8.37 2.45,3.34 6.4,5.73 11.36,5.73 7.83,0 14.2,-6.37 14.2,-14.2 0,-7.83 -6.37,-14.2 -14.2,-14.2 -4.64,0 -8.78,2.24 -11.37,5.7 A 28.42,28.42 0 0 0 -16.36,-42 24,24 0 0 1 0,-48.4 c 13.34,0 24.2,10.86 24.2,24.2 C 24.2,-10.86 13.34,0 0,0"
         style="fill:#000000;fill-opacity:1;fill-rule:nonzero;stroke:none;stroke-width:9.69257"
         transform="translate(504.364,332.059)"
         id="path5" />
    </g>
  </g>
</svg>
