<?xml version="1.0" encoding="UTF-8"?>
<!-- Created with Inkscape (http://www.inkscape.org/) -->
<svg width="130mm" height="130mm" version="1.1" viewBox="0 0 130 130" xmlns="http://www.w3.org/2000/svg">
 <g stroke-dashoffset=".37795" stroke-linecap="round">
  <path d="m27.56 65.175q-0.27517 0-0.4826-0.11007-0.2032-0.1143-0.31327-0.3175-0.11007-0.20743-0.11007-0.4826v-1.3547q0-0.2794 0.11007-0.4826 0.11007-0.2032 0.31327-0.31327 0.20743-0.1143 0.4826-0.1143 0.28363 0 0.4826 0.1143 0.2032 0.11007 0.31327 0.31327 0.11007 0.2032 0.11007 0.4826v1.3547q0 0.27517-0.11007 0.4826-0.11007 0.2032-0.31327 0.3175-0.2032 0.11007-0.4826 0.11007zm0-0.27517q0.27093 0 0.4318-0.17357 0.1651-0.17357 0.1651-0.46143v-1.3547q0-0.28787-0.1651-0.46143-0.16087-0.17357-0.4318-0.17357t-0.43603 0.17357q-0.16087 0.17357-0.16087 0.46143v1.3547q0 0.28787 0.16087 0.46143 0.1651 0.17357 0.43603 0.17357zm0-1.0964q-0.10583 0-0.17357-0.05927-0.0635-0.05927-0.0635-0.16933 0-0.11007 0.0635-0.1651 0.06773-0.05503 0.17357-0.05503 0.11007 0 0.17357 0.05503t0.0635 0.1651q0 0.11007-0.0635 0.16933-0.0635 0.05927-0.17357 0.05927z" stroke-width=".26458" aria-label="0"/>
  <path d="m40.734 60.001v-0.2921l1.0583-1.1303q0.22013-0.22437 0.3175-0.42757 0.09737-0.20743 0.09737-0.40217 0-0.27093-0.16087-0.4318-0.16087-0.1651-0.4318-0.1651-0.2794 0-0.4445 0.16933-0.1651 0.1651-0.1651 0.44027h-0.3175q0.0042-0.27093 0.11853-0.4699 0.11853-0.2032 0.32597-0.31327 0.20743-0.11007 0.4826-0.11007 0.2794 0 0.4826 0.11007 0.20743 0.11007 0.32173 0.30903 0.1143 0.19897 0.1143 0.46567 0 0.2286-0.12277 0.4826-0.12277 0.254-0.3937 0.53763l-0.89747 0.9398h1.452v0.28787z" stroke-width=".26458" aria-label="2"/>
  <path d="m69.824 65.928-7.3262 2.668a0.13229 0.13229 0 0 0-0.07813 0.16797 0.13229 0.13229 0 0 0 0.16992 0.08008l7.3262-2.666a0.13229 0.13229 0 0 0 0.07813-0.16992 0.13229 0.13229 0 0 0-0.16992-0.08008z"/>
  <path d="m90.697 68.596-14.1 5.1309a0.13229 0.13229 0 0 0-0.07813 0.16992 0.13229 0.13229 0 0 0 0.16992 0.07813l14.1-5.1309a0.13229 0.13229 0 0 0 0.07813-0.16992 0.13229 0.13229 0 0 0-0.16992-0.07813z"/>
  <path d="m83.688 66.01a0.13229 0.13229 0 0 0-0.16992 0.08008 0.13229 0.13229 0 0 0 0.08008 0.16992l7.0996 2.584a0.13229 0.13229 0 0 0 0.16992-0.08008 0.13229 0.13229 0 0 0-0.07813-0.16797z"/>
  <path d="m48.445 73.719a0.13229 0.13229 0 0 0-0.13281 0.13281v30.004a0.13229 0.13229 0 0 0 0.13281 0.13281 0.13229 0.13229 0 0 0 0.13086-0.13281v-30.004a0.13229 0.13229 0 0 0-0.13086-0.13281z"/>
  <path d="m48.49 103.73a0.13229 0.13229 0 0 0-0.16992 0.0801 0.13229 0.13229 0 0 0 0.07813 0.16992l14.1 5.1309a0.13229 0.13229 0 0 0 0.16992-0.0781 0.13229 0.13229 0 0 0-0.07813-0.16992z"/>
  <path d="m62.498 68.596-14.1 5.1309a0.13229 0.13229 0 0 0-0.07813 0.16992 0.13229 0.13229 0 0 0 0.16992 0.07813l14.1-5.1309a0.13229 0.13229 0 0 0 0.07813-0.16992 0.13229 0.13229 0 0 0-0.16992-0.07813z"/>
  <path d="m48.49 73.727a0.13229 0.13229 0 0 0-0.16992 0.08008 0.13229 0.13229 0 0 0 0.07813 0.16797l14.1 5.1328a0.13229 0.13229 0 0 0 0.16992-0.08008 0.13229 0.13229 0 0 0-0.07813-0.16797z"/>
  <path d="m62.545 78.85a0.13229 0.13229 0 0 0-0.13281 0.13281v30.006a0.13229 0.13229 0 0 0 0.13281 0.13086 0.13229 0.13229 0 0 0 0.13086-0.13086v-30.006a0.13229 0.13229 0 0 0-0.13086-0.13281z"/>
  <path d="m76.598 73.727-14.1 5.1328a0.13229 0.13229 0 0 0-0.07813 0.16797 0.13229 0.13229 0 0 0 0.16992 0.08008l14.1-5.1328a0.13229 0.13229 0 0 0 0.07813-0.16797 0.13229 0.13229 0 0 0-0.16992-0.08008z"/>
  <path d="m62.59 68.596a0.13229 0.13229 0 0 0-0.16992 0.07813 0.13229 0.13229 0 0 0 0.07813 0.16992l14.1 5.1309a0.13229 0.13229 0 0 0 0.16992-0.07813 0.13229 0.13229 0 0 0-0.07813-0.16992z"/>
  <path d="m62.59 108.86a0.13229 0.13229 0 0 0-0.16992 0.0781 0.13229 0.13229 0 0 0 0.07813 0.16992l14.1 5.1328a0.13229 0.13229 0 0 0 0.16992-0.0801 0.13229 0.13229 0 0 0-0.07813-0.16992z"/>
  <path d="m62.59 78.859a0.13229 0.13229 0 0 0-0.16992 0.07813 0.13229 0.13229 0 0 0 0.07813 0.16992l14.1 5.1309a0.13229 0.13229 0 0 0 0.16992-0.07813 0.13229 0.13229 0 0 0-0.07813-0.16992z"/>
  <path d="m76.643 83.982a0.13229 0.13229 0 0 0-0.13086 0.13281v30.004a0.13229 0.13229 0 0 0 0.13086 0.13281 0.13229 0.13229 0 0 0 0.13281-0.13281v-30.004a0.13229 0.13229 0 0 0-0.13281-0.13281z"/>
  <path d="m90.742 78.85a0.13229 0.13229 0 0 0-0.13086 0.13281v30.006a0.13229 0.13229 0 0 0 0.13086 0.13086 0.13229 0.13229 0 0 0 0.13281-0.13086v-30.006a0.13229 0.13229 0 0 0-0.13281-0.13281z"/>
  <path d="m90.697 78.859-14.1 5.1309a0.13229 0.13229 0 0 0-0.07813 0.16992 0.13229 0.13229 0 0 0 0.16992 0.07813l14.1-5.1309a0.13229 0.13229 0 0 0 0.07813-0.16992 0.13229 0.13229 0 0 0-0.16992-0.07813z"/>
  <path d="m76.689 73.727a0.13229 0.13229 0 0 0-0.16992 0.08008 0.13229 0.13229 0 0 0 0.07813 0.16797l14.1 5.1328a0.13229 0.13229 0 0 0 0.16992-0.08008 0.13229 0.13229 0 0 0-0.07813-0.16797z"/>
  <path d="m90.697 108.86-14.1 5.1309a0.13229 0.13229 0 0 0-0.07813 0.16992 0.13229 0.13229 0 0 0 0.16992 0.0801l14.1-5.1328a0.13229 0.13229 0 0 0 0.07813-0.16992 0.13229 0.13229 0 0 0-0.16992-0.0781z"/>
 </g>
 <g transform="matrix(1.015 0 0 1.015 65.783 -57.985)" stroke-width=".9852">
  <g transform="translate(-10.112 1.3769)" stroke-dashoffset=".37795" stroke-linecap="round">
   <path d="m48.594 128.33a0.13033 0.13033 0 0 0-0.13086 0.13086v29.561a0.13033 0.13033 0 0 0 0.13086 0.13086 0.13033 0.13033 0 0 0 0.13086-0.13086v-29.561a0.13033 0.13033 0 0 0-0.13086-0.13086z"/>
   <path d="m48.549 128.34-13.891 5.0566a0.13033 0.13033 0 0 0-0.07813 0.16797 0.13033 0.13033 0 0 0 0.16797 0.0762l13.891-5.0547a0.13033 0.13033 0 0 0 0.07813-0.16797 0.13033 0.13033 0 0 0-0.16797-0.0781z"/>
   <path d="m34.748 123.29a0.13033 0.13033 0 0 0-0.16797 0.0781 0.13033 0.13033 0 0 0 0.07813 0.16602l13.891 5.0566a0.13033 0.13033 0 0 0 0.16797-0.0781 0.13033 0.13033 0 0 0-0.07813-0.16797z"/>
   <path d="m48.549 157.94-13.891 5.0566a0.13033 0.13033 0 0 0-0.07813 0.16797 0.13033 0.13033 0 0 0 0.16797 0.0762l13.891-5.0547a0.13033 0.13033 0 0 0 0.07813-0.16797 0.13033 0.13033 0 0 0-0.16797-0.0781z"/>
  </g>
 </g>
 <g stroke-dashoffset=".37795" stroke-linecap="round">
  <path d="m55.725 60.797-7.3262 2.666a0.13229 0.13229 0 0 0-0.07813 0.16992 0.13229 0.13229 0 0 0 0.16992 0.07813l7.3262-2.666a0.13229 0.13229 0 0 0 0.07813-0.16992 0.13229 0.13229 0 0 0-0.16992-0.07813z"/>
  <path d="m34.346 68.586a0.13229 0.13229 0 0 0-0.13281 0.13281v30.006a0.13229 0.13229 0 0 0 0.13281 0.13086 0.13229 0.13229 0 0 0 0.13086-0.13086v-30.006a0.13229 0.13229 0 0 0-0.13086-0.13281z"/>
  <path d="m48.398 63.463-14.098 5.1328a0.13229 0.13229 0 0 0-0.08008 0.16797 0.13229 0.13229 0 0 0 0.16992 0.08008l14.1-5.1328a0.13229 0.13229 0 0 0 0.07813-0.16797 0.13229 0.13229 0 0 0-0.16992-0.08008z"/>
  <path d="m34.391 68.596a0.13229 0.13229 0 0 0-0.16992 0.07813 0.13229 0.13229 0 0 0 0.08008 0.16992l14.098 5.1309a0.13229 0.13229 0 0 0 0.16992-0.07813 0.13229 0.13229 0 0 0-0.07813-0.16992z"/>
  <path d="m48.49 63.463a0.13229 0.13229 0 0 0-0.16992 0.08008 0.13229 0.13229 0 0 0 0.07813 0.16797l14.1 5.1328a0.13229 0.13229 0 0 0 0.16992-0.08008 0.13229 0.13229 0 0 0-0.07813-0.16797z"/>
  <path d="m41.664 55.65-7.3633 2.6816a0.13229 0.13229 0 0 0-0.080078 0.16797 0.13229 0.13229 0 0 0 0.16992 0.08008l7.3652-2.6816a0.13229 0.13229 0 0 0 0.07813-0.16797 0.13229 0.13229 0 0 0-0.16992-0.08008z"/>
  <path d="m20.246 63.455a0.13229 0.13229 0 0 0-0.13281 0.13281v30.004a0.13229 0.13229 0 0 0 0.13281 0.13281 0.13229 0.13229 0 0 0 0.13281-0.13281v-30.004a0.13229 0.13229 0 0 0-0.13281-0.13281z"/>
  <path d="m34.301 58.332-14.1 5.1309a0.13229 0.13229 0 0 0-0.08008 0.16992 0.13229 0.13229 0 0 0 0.16992 0.07813l14.1-5.1309a0.13229 0.13229 0 0 0 0.07813-0.16992 0.13229 0.13229 0 0 0-0.16797-0.07813z"/>
  <path d="m20.291 63.463a0.13229 0.13229 0 0 0-0.16992 0.08008 0.13229 0.13229 0 0 0 0.08008 0.16797l14.1 5.1328a0.13229 0.13229 0 0 0 0.16797-0.08008 0.13229 0.13229 0 0 0-0.07813-0.16797z"/>
  <path d="m34.391 58.332a0.13229 0.13229 0 0 0-0.16992 0.07813 0.13229 0.13229 0 0 0 0.08008 0.16992l14.098 5.1309a0.13229 0.13229 0 0 0 0.16992-0.07813 0.13229 0.13229 0 0 0-0.07813-0.16992z"/>
  <path d="m34.391 98.6a0.13229 0.13229 0 0 0-0.16992 0.07813 0.13229 0.13229 0 0 0 0.08008 0.16992l14.098 5.1328a0.13229 0.13229 0 0 0 0.16992-0.0801 0.13229 0.13229 0 0 0-0.07813-0.16992z"/>
  <path d="m20.291 93.467a0.13229 0.13229 0 0 0-0.16992 0.08008 0.13229 0.13229 0 0 0 0.08008 0.16992l14.1 5.1309a0.13229 0.13229 0 0 0 0.16797-0.07813 0.13229 0.13229 0 0 0-0.07813-0.16992z"/>
  <path d="m76.863 17.93-14.1 5.1309a0.13229 0.13229 0 0 0-0.08008 0.16992 0.13229 0.13229 0 0 0 0.16992 0.08008l14.1-5.1328a0.13229 0.13229 0 0 0 0.08008-0.16992 0.13229 0.13229 0 0 0-0.16992-0.07813z"/>
  <path d="m90.963 23.061-14.1 5.1328a0.13229 0.13229 0 0 0-0.08008 0.16992 0.13229 0.13229 0 0 0 0.16992 0.07813l14.1-5.1309a0.13229 0.13229 0 0 0 0.07813-0.16992 0.13229 0.13229 0 0 0-0.16797-0.08008z"/>
  <path d="m76.953 17.93a0.13229 0.13229 0 0 0-0.16992 0.07813 0.13229 0.13229 0 0 0 0.08008 0.16992l14.1 5.1328a0.13229 0.13229 0 0 0 0.16797-0.08008 0.13229 0.13229 0 0 0-0.07813-0.16992z"/>
  <path d="m105.06 58.199-28.195 10.262a0.13229 0.13229 0 0 0-0.08008 0.16992 0.13229 0.13229 0 0 0 0.16992 0.08008l28.195-10.264a0.13229 0.13229 0 0 0 0.0781-0.16797 0.13229 0.13229 0 0 0-0.16797-0.08008z" fill="#808080" fill-opacity=".98235"/>
  <path d="m105.06 58.199-28.195 10.262a0.13229 0.13229 0 0 0-0.08008 0.16992 0.13229 0.13229 0 0 0 0.16992 0.08008l28.195-10.264a0.13229 0.13229 0 0 0 0.0781-0.16797 0.13229 0.13229 0 0 0-0.16797-0.08008z" fill="#808080" fill-opacity=".98235"/>
  <path d="m48.709 28.186a0.13229 0.13229 0 0 0-0.13281 0.13281v30.004a0.13229 0.13229 0 0 0 0.13281 0.13281 0.13229 0.13229 0 0 0 0.13281-0.13281v-30.004a0.13229 0.13229 0 0 0-0.13281-0.13281z"/>
  <path d="m48.754 58.197a0.13229 0.13229 0 0 0-0.16992 0.08008 0.13229 0.13229 0 0 0 0.08008 0.16992l14.1 5.1309a0.13229 0.13229 0 0 0 0.16992-0.078127 0.13229 0.13229 0 0 0-0.080078-0.16992z"/>
  <path d="m62.764 23.061-14.1 5.1328a0.13229 0.13229 0 0 0-0.08008 0.16992 0.13229 0.13229 0 0 0 0.16992 0.07813l14.1-5.1309a0.13229 0.13229 0 0 0 0.08008-0.16992 0.13229 0.13229 0 0 0-0.16992-0.08008z"/>
  <path d="m48.754 28.193a0.13229 0.13229 0 0 0-0.16992 0.07813 0.13229 0.13229 0 0 0 0.08008 0.16992l14.1 5.1328a0.13229 0.13229 0 0 0 0.16992-0.08008 0.13229 0.13229 0 0 0-0.08008-0.16797z"/>
  <path d="m62.809 33.316a0.13229 0.13229 0 0 0-0.13281 0.13281v30.006a0.13229 0.13229 0 0 0 0.13281 0.13086 0.13229 0.13229 0 0 0 0.13281-0.13086v-30.006a0.13229 0.13229 0 0 0-0.13281-0.13281z"/>
  <path d="m76.863 28.193-14.1 5.1328a0.13229 0.13229 0 0 0-0.08008 0.16797 0.13229 0.13229 0 0 0 0.16992 0.08008l14.1-5.1328a0.13229 0.13229 0 0 0 0.08008-0.16992 0.13229 0.13229 0 0 0-0.16992-0.07813z"/>
  <path d="m62.854 23.061a0.13229 0.13229 0 0 0-0.16992 0.08008 0.13229 0.13229 0 0 0 0.08008 0.16992l14.1 5.1309a0.13229 0.13229 0 0 0 0.16992-0.07813 0.13229 0.13229 0 0 0-0.08008-0.16992z"/>
  <path d="m62.854 63.33a0.13229 0.13229 0 0 0-0.16992 0.07813 0.13229 0.13229 0 0 0 0.08008 0.16992l14.1 5.1328a0.13229 0.13229 0 0 0 0.16992-0.08008 0.13229 0.13229 0 0 0-0.08008-0.16992z"/>
  <path d="m62.854 33.326a0.13229 0.13229 0 0 0-0.16992 0.07813 0.13229 0.13229 0 0 0 0.08008 0.16992l14.1 5.1309a0.13229 0.13229 0 0 0 0.16992-0.07813 0.13229 0.13229 0 0 0-0.08008-0.16992z"/>
  <path d="m76.908 38.449a0.13229 0.13229 0 0 0-0.13281 0.13281v30.004a0.13229 0.13229 0 0 0 0.13281 0.13281 0.13229 0.13229 0 0 0 0.13281-0.13281v-30.004a0.13229 0.13229 0 0 0-0.13281-0.13281z"/>
  <path d="m91.008 33.316a0.13229 0.13229 0 0 0-0.13281 0.13281v30.006a0.13229 0.13229 0 0 0 0.13281 0.13086 0.13229 0.13229 0 0 0 0.13281-0.13086v-30.006a0.13229 0.13229 0 0 0-0.13281-0.13281z"/>
  <path d="m90.963 33.326-14.1 5.1309a0.13229 0.13229 0 0 0-0.08008 0.16992 0.13229 0.13229 0 0 0 0.16992 0.07813l14.1-5.1309a0.13229 0.13229 0 0 0 0.07813-0.16992 0.13229 0.13229 0 0 0-0.16797-0.07813z"/>
  <path d="m76.953 28.193a0.13229 0.13229 0 0 0-0.16992 0.07813 0.13229 0.13229 0 0 0 0.08008 0.16992l14.1 5.1328a0.13229 0.13229 0 0 0 0.16797-0.08008 0.13229 0.13229 0 0 0-0.07813-0.16797z"/>
  <path d="m90.963 63.33-14.1 5.1309a0.13229 0.13229 0 0 0-0.08008 0.16992 0.13229 0.13229 0 0 0 0.16992 0.08008l14.1-5.1328a0.13229 0.13229 0 0 0 0.07813-0.16992 0.13229 0.13229 0 0 0-0.16797-0.07813z"/>
 </g>
 <g transform="matrix(1.015 0 0 1.015 66.047 -103.47)" stroke-width=".9852">
  <g transform="translate(-10.112 1.3769)" stroke-dashoffset=".37795" stroke-linecap="round">
   <path d="m48.594 128.33a0.13033 0.13033 0 0 0-0.13086 0.13086v29.561a0.13033 0.13033 0 0 0 0.13086 0.13086 0.13033 0.13033 0 0 0 0.13086-0.13086v-29.561a0.13033 0.13033 0 0 0-0.13086-0.13086z"/>
   <path d="m48.549 128.34-13.891 5.0566a0.13033 0.13033 0 0 0-0.07813 0.16797 0.13033 0.13033 0 0 0 0.16797 0.0762l13.891-5.0547a0.13033 0.13033 0 0 0 0.07813-0.16797 0.13033 0.13033 0 0 0-0.16797-0.0781z"/>
   <path d="m34.748 123.29a0.13033 0.13033 0 0 0-0.16797 0.0781 0.13033 0.13033 0 0 0 0.07813 0.16602l13.891 5.0566a0.13033 0.13033 0 0 0 0.16797-0.0781 0.13033 0.13033 0 0 0-0.07813-0.16797z"/>
   <path d="m48.549 157.94-13.891 5.0566a0.13033 0.13033 0 0 0-0.07813 0.16797 0.13033 0.13033 0 0 0 0.16797 0.0762l13.891-5.0547a0.13033 0.13033 0 0 0 0.07813-0.16797 0.13033 0.13033 0 0 0-0.16797-0.0781z"/>
  </g>
 </g>
 <g stroke-dashoffset=".37795" stroke-linecap="round">
  <path d="m62.764 12.797-14.1 5.1328a0.13229 0.13229 0 0 0-0.08008 0.16992 0.13229 0.13229 0 0 0 0.16992 0.07813l14.1-5.1309a0.13229 0.13229 0 0 0 0.08008-0.16992 0.13229 0.13229 0 0 0-0.16992-0.08008z"/>
  <path d="m62.854 12.797a0.13229 0.13229 0 0 0-0.16992 0.08008 0.13229 0.13229 0 0 0 0.08008 0.16992l14.1 5.1309a0.13229 0.13229 0 0 0 0.16992-0.07813 0.13229 0.13229 0 0 0-0.08008-0.16992z"/>
  <path d="m34.609 23.053a0.13229 0.13229 0 0 0-0.13281 0.13281v30.006a0.13229 0.13229 0 0 0 0.13281 0.13086 0.13229 0.13229 0 0 0 0.13281-0.13086v-30.006a0.13229 0.13229 0 0 0-0.13281-0.13281z"/>
  <path d="m48.664 17.93-14.1 5.1328a0.13229 0.13229 0 0 0-0.07813 0.16797 0.13229 0.13229 0 0 0 0.16797 0.08008l14.1-5.1328a0.13229 0.13229 0 0 0 0.08008-0.16992 0.13229 0.13229 0 0 0-0.16992-0.07813z"/>
  <path d="m34.654 23.062a0.13229 0.13229 0 0 0-0.16797 0.07813 0.13229 0.13229 0 0 0 0.07813 0.16992l14.1 5.1309a0.13229 0.13229 0 0 0 0.16992-0.07813 0.13229 0.13229 0 0 0-0.08008-0.16992z"/>
  <path d="m48.754 17.93a0.13229 0.13229 0 0 0-0.16992 0.07813 0.13229 0.13229 0 0 0 0.08008 0.16992l14.1 5.1328a0.13229 0.13229 0 0 0 0.16992-0.08008 0.13229 0.13229 0 0 0-0.08008-0.16992z"/>
  <path d="m48.664 7.666-14.1 5.1309a0.13229 0.13229 0 0 0-0.07813 0.16992 0.13229 0.13229 0 0 0 0.16797 0.08008l14.1-5.1328a0.13229 0.13229 0 0 0 0.08008-0.16992 0.13229 0.13229 0 0 0-0.16992-0.078125z"/>
  <path d="m48.754 7.666a0.13229 0.13229 0 0 0-0.16992 0.078125 0.13229 0.13229 0 0 0 0.08008 0.16992l14.1 5.1328a0.13229 0.13229 0 0 0 0.16992-0.08008 0.13229 0.13229 0 0 0-0.08008-0.16992z"/>
  <path d="m20.51 17.922a0.13229 0.13229 0 0 0-0.13086 0.13281v30.004a0.13229 0.13229 0 0 0 0.13086 0.13281 0.13229 0.13229 0 0 0 0.13281-0.13281v-30.004a0.13229 0.13229 0 0 0-0.13281-0.13281z"/>
  <path d="m34.564 12.797-14.1 5.1328a0.13229 0.13229 0 0 0-0.07813 0.16992 0.13229 0.13229 0 0 0 0.16797 0.07813l14.1-5.1309a0.13229 0.13229 0 0 0 0.08008-0.16992 0.13229 0.13229 0 0 0-0.16992-0.08008z"/>
  <path d="m20.555 17.93a0.13229 0.13229 0 0 0-0.16797 0.07813 0.13229 0.13229 0 0 0 0.07813 0.16992l14.1 5.1328a0.13229 0.13229 0 0 0 0.16992-0.08008 0.13229 0.13229 0 0 0-0.08008-0.16797z"/>
  <path d="m34.654 12.797a0.13229 0.13229 0 0 0-0.16797 0.08008 0.13229 0.13229 0 0 0 0.07813 0.16992l14.1 5.1309a0.13229 0.13229 0 0 0 0.16992-0.07813 0.13229 0.13229 0 0 0-0.08008-0.16992z"/>
  <path d="m34.654 53.066a0.13229 0.13229 0 0 0-0.16797 0.07813 0.13229 0.13229 0 0 0 0.07813 0.16992l14.1 5.1328a0.13229 0.13229 0 0 0 0.16992-0.08008 0.13229 0.13229 0 0 0-0.08008-0.16992z"/>
  <path d="m20.555 47.934a0.13229 0.13229 0 0 0-0.16797 0.08008 0.13229 0.13229 0 0 0 0.07813 0.16992l14.1 5.1309a0.13229 0.13229 0 0 0 0.16992-0.07813 0.13229 0.13229 0 0 0-0.08008-0.16992z"/>
  <g stroke-width=".26458">
   <path d="m40.758 70.264v-0.28787h0.8509v-2.5231l-0.8382 0.6223v-0.36407l0.7239-0.53763h0.4318v2.8025h0.70273v0.28787z" aria-label="1"/>
   <path d="m55.712 65.175q-0.41063 0-0.65617-0.23707-0.24553-0.23707-0.24553-0.64347h0.3175q0 0.27517 0.16087 0.43603 0.16087 0.16087 0.42757 0.16087t0.42757-0.16087q0.16087-0.16087 0.16087-0.43603v-0.23707q0-0.27093-0.16087-0.42333-0.15663-0.15663-0.42757-0.15663h-0.3048v-0.2794l0.79163-0.86783h-1.3039v-0.28787h1.6595v0.30057l-0.87207 0.96097 0.02963-0.1143q0.4191 0 0.6604 0.23707 0.24553 0.23283 0.24553 0.63077v0.23707q0 0.4064-0.24553 0.64347-0.24553 0.23707-0.66463 0.23707z" aria-label="3"/>
   <path d="m56.256 75.396v-0.69427h-1.4012v-0.5334l1.1557-1.8627h0.35983l-1.198 1.9389v0.16933h1.0837v-0.79587h0.32173v1.778z" aria-label="4"/>
   <path d="m69.833 70.307q-0.41063 0-0.65617-0.23707-0.24553-0.23707-0.24553-0.64347h0.3175q0 0.27517 0.16087 0.43603 0.16087 0.16087 0.42757 0.16087t0.42757-0.16087q0.16087-0.16087 0.16087-0.43603v-0.19473q0-0.28363-0.15663-0.4445-0.1524-0.16087-0.4191-0.16087h-0.8128v-1.452h1.6087v0.28787h-1.3123l0.0085 0.87207h0.5207q0.42333 0 0.65193 0.23707 0.2286 0.23283 0.2286 0.6604v0.19473q0 0.4064-0.24553 0.64347-0.24553 0.23707-0.66463 0.23707z" aria-label="5"/>
   <path d="m69.791 80.57q-0.2921 0-0.51223-0.12277-0.22013-0.127-0.34713-0.34713-0.12277-0.22013-0.12277-0.51223 0-0.2032 0.0762-0.41063t0.19897-0.42333l0.74507-1.3166h0.3556l-0.8001 1.3716 0.0127 0.0085q0.05927-0.07197 0.18203-0.12277 0.127-0.0508 0.28787-0.0508 0.27093 0 0.4699 0.11853 0.19897 0.11853 0.31327 0.3302 0.1143 0.21167 0.1143 0.49107 0 0.2921-0.127 0.51647-0.12277 0.22013-0.3429 0.34713-0.2159 0.12277-0.50377 0.12277zm-0.0042-0.28363q0.19897 0 0.3429-0.08467 0.14817-0.0889 0.23283-0.24553 0.08467-0.16087 0.08467-0.36407 0-0.20743-0.08467-0.36407-0.08467-0.15663-0.23283-0.24553-0.14393-0.0889-0.3429-0.0889-0.19473 0-0.3429 0.0889-0.14817 0.0889-0.23283 0.24553-0.08043 0.15663-0.08467 0.36407 0 0.2032 0.08043 0.36407 0.08467 0.15663 0.23283 0.24553 0.1524 0.08467 0.34713 0.08467z" aria-label="6"/>
   <path d="m83.456 75.396 1.1261-2.8025h-1.2785v0.5588h-0.3175v-0.84667h1.9346v0.30057l-1.1176 2.7898z" aria-label="7"/>
   <path d="m27.765 19.642q-0.28363 0-0.50377-0.11007-0.22013-0.1143-0.3429-0.3175-0.11853-0.2032-0.11853-0.46567 0-0.19473 0.0762-0.3556 0.0762-0.16087 0.21167-0.27093 0.13547-0.11007 0.3175-0.14393v-0.0127q-0.23283-0.0508-0.37677-0.2413-0.14393-0.1905-0.14393-0.44027 0-0.2413 0.11007-0.42333 0.11007-0.18627 0.30903-0.28787 0.2032-0.10583 0.46143-0.10583 0.26247 0 0.46143 0.10583 0.19897 0.1016 0.30903 0.28787 0.11007 0.18203 0.11007 0.42333 0 0.24977-0.14393 0.44027-0.14393 0.1905-0.37677 0.2413v0.0127q0.18203 0.03387 0.3175 0.14393 0.13547 0.11007 0.21167 0.27093 0.0762 0.16087 0.0762 0.3556 0 0.26247-0.12277 0.46567-0.11853 0.2032-0.33867 0.3175-0.2159 0.11007-0.50377 0.11007zm0-0.28787q0.28787 0 0.46567-0.1651 0.18203-0.16933 0.18203-0.44027 0-0.2794-0.18203-0.44873-0.1778-0.16933-0.46567-0.16933-0.28787 0-0.4699 0.16933-0.1778 0.16933-0.1778 0.44873 0 0.27093 0.1778 0.44027 0.18203 0.1651 0.4699 0.1651zm0-1.5071q0.254 0 0.4064-0.1524 0.15663-0.1524 0.15663-0.3937 0-0.24553-0.15663-0.39793-0.1524-0.1524-0.4064-0.1524-0.24977 0-0.4064 0.1524-0.15663 0.1524-0.15663 0.39793 0 0.2413 0.15663 0.3937 0.15663 0.1524 0.4064 0.1524z" aria-label="8"/>
   <path d="m40.809 14.467v-0.28787h0.8509v-2.5231l-0.8382 0.6223v-0.36407l0.7239-0.53763h0.4318v2.8025h0.70273v0.28787zm3.4121 0.04233q-0.27517 0-0.4826-0.11007-0.2032-0.1143-0.31327-0.3175-0.11007-0.20743-0.11007-0.4826v-1.3547q0-0.2794 0.11007-0.4826 0.11007-0.2032 0.31327-0.31327 0.20743-0.1143 0.4826-0.1143 0.28363 0 0.4826 0.1143 0.2032 0.11007 0.31327 0.31327 0.11007 0.2032 0.11007 0.4826v1.3547q0 0.27517-0.11007 0.4826-0.11007 0.2032-0.31327 0.3175-0.2032 0.11007-0.4826 0.11007zm0-0.27517q0.27093 0 0.4318-0.17357 0.1651-0.17357 0.1651-0.46143v-1.3547q0-0.28787-0.1651-0.46143-0.16087-0.17357-0.4318-0.17357-0.27093 0-0.43603 0.17357-0.16087 0.17357-0.16087 0.46143v1.3547q0 0.28787 0.16087 0.46143 0.1651 0.17357 0.43603 0.17357zm0-1.0964q-0.10583 0-0.17357-0.05927-0.0635-0.05927-0.0635-0.16933 0-0.11007 0.0635-0.1651 0.06773-0.05503 0.17357-0.05503 0.11007 0 0.17357 0.05503t0.0635 0.1651q0 0.11007-0.0635 0.16933-0.0635 0.05927-0.17357 0.05927z" aria-label="10"/>
   <path d="m41.437 24.731 0.8128-1.3716-0.0127-0.0085q-0.03387 0.04233-0.10583 0.08467-0.06773 0.04233-0.1651 0.06773-0.09313 0.0254-0.20743 0.0254-0.25823 0-0.4572-0.11853-0.19473-0.11853-0.30903-0.3302-0.11007-0.21167-0.11007-0.49107 0-0.29633 0.12277-0.51647 0.127-0.22437 0.3429-0.34713 0.22013-0.127 0.50377-0.127 0.2921 0 0.51223 0.127 0.22013 0.12277 0.3429 0.3429 0.12277 0.22013 0.12277 0.51223 0 0.19897-0.06773 0.4064t-0.19473 0.42757l-0.75777 1.3166zm0.4191-1.4563q0.2921 0 0.47413-0.1905t0.18203-0.49953q0.0042-0.21167-0.08043-0.3683-0.08467-0.15663-0.23283-0.24553-0.14393-0.0889-0.3429-0.0889-0.1905 0-0.33867 0.0889-0.14817 0.0889-0.23283 0.24553-0.08467 0.15663-0.08467 0.3683 0 0.2032 0.08467 0.35983t0.23283 0.24553q0.14817 0.08467 0.33867 0.08467z" aria-label="9"/>
   <path d="m54.862 19.599v-0.28787h0.8509v-2.5231l-0.8382 0.6223v-0.36407l0.7239-0.53763h0.4318v2.8025h0.70273v0.28787zm2.54 0v-0.28787h0.8509v-2.5231l-0.8382 0.6223v-0.36407l0.7239-0.53763h0.4318v2.8025h0.70273v0.28787z" aria-label="11"/>
   <path d="m54.887 29.863v-0.28787h0.8509v-2.5231l-0.8382 0.6223v-0.36407l0.7239-0.53763h0.4318v2.8025h0.70273v0.28787zm2.5231 0v-0.2921l1.0583-1.1303q0.22013-0.22437 0.3175-0.42757 0.09737-0.20743 0.09737-0.40217 0-0.27093-0.16087-0.4318-0.16087-0.1651-0.4318-0.1651-0.2794 0-0.4445 0.16933-0.1651 0.1651-0.1651 0.44027h-0.3175q0.0042-0.27093 0.11853-0.4699 0.11853-0.2032 0.32597-0.31327 0.20743-0.11007 0.4826-0.11007 0.2794 0 0.4826 0.11007 0.20743 0.11007 0.32173 0.30903 0.1143 0.19897 0.1143 0.46567 0 0.2286-0.12277 0.4826-0.12277 0.254-0.3937 0.53763l-0.89746 0.9398h1.452v0.28787z" aria-label="12"/>
   <path d="m69.029 24.731v-0.28787h0.8509v-2.5231l-0.8382 0.6223v-0.36407l0.7239-0.53763h0.4318v2.8025h0.70273v0.28787zm3.3655 0.04233q-0.41063 0-0.65617-0.23707-0.24553-0.23707-0.24553-0.64347h0.3175q0 0.27517 0.16087 0.43603 0.16087 0.16087 0.42757 0.16087 0.2667 0 0.42757-0.16087 0.16087-0.16087 0.16087-0.43603v-0.23707q0-0.27093-0.16087-0.42333-0.15663-0.15663-0.42757-0.15663h-0.3048v-0.2794l0.79163-0.86783h-1.3039v-0.28786h1.6595v0.30057l-0.87207 0.96097 0.02963-0.1143q0.4191 0 0.6604 0.23707 0.24553 0.23283 0.24553 0.63077v0.23707q0 0.4064-0.24553 0.64347-0.24553 0.23707-0.66463 0.23707z" aria-label="13"/>
   <path d="m69.074 34.995v-0.28787h0.8509v-2.5231l-0.8382 0.6223v-0.36407l0.7239-0.53763h0.4318v2.8025h0.70273v0.28787zm3.865 0v-0.69427h-1.4012v-0.5334l1.1557-1.8627h0.35983l-1.198 1.9389v0.16933h1.0837v-0.79587h0.32173v1.778z" aria-label="14"/>
   <path d="m83.118 29.863v-0.28787h0.8509v-2.5231l-0.8382 0.6223v-0.36407l0.7239-0.53763h0.4318v2.8025h0.70273v0.28787zm3.3867 0.04233q-0.41063 0-0.65617-0.23707-0.24553-0.23707-0.24553-0.64347h0.3175q0 0.27517 0.16087 0.43603 0.16087 0.16087 0.42757 0.16087t0.42757-0.16087q0.16087-0.16087 0.16087-0.43603v-0.19473q0-0.28363-0.15663-0.4445-0.1524-0.16087-0.4191-0.16087h-0.8128v-1.452h1.6087v0.28787h-1.3123l0.0085 0.87207h0.5207q0.42333 0 0.65193 0.23707 0.2286 0.23283 0.2286 0.6604v0.19473q0 0.4064-0.24553 0.64347-0.24553 0.23707-0.66463 0.23707z" aria-label="15"/>
  </g>
 </g>
 <path d="m18.545 96.303a0.1325 0.1325 0 0 0-0.16992 0.07813 0.1325 0.1325 0 0 0 0.08008 0.16992l57.201 20.75a0.1325 0.1325 0 0 0 0.16992-0.0801 0.1325 0.1325 0 0 0-0.08008-0.16992z" stroke-dashoffset=".37795" stroke-linecap="round"/>
 <g fill="context-stroke">
  <path d="m76.596 113.25-2.7285 7.5195 0.94141 0.34179 2.7266-7.5215z"/>
  <path d="m19.395 92.496-2.7285 7.5195 0.93945 0.34179 2.7285-7.5215z"/>
 </g>
 <path d="m105.83 106.95-28.156 10.182a0.1325 0.1325 0 0 0-0.08008 0.16992 0.1325 0.1325 0 0 0 0.16992 0.0801l28.156-10.182a0.1325 0.1325 0 0 0 0.0801-0.16992 0.1325 0.1325 0 0 0-0.16992-0.0801z" stroke-dashoffset=".37795" stroke-linecap="round"/>
 <g fill="context-stroke">
  <path d="m104.99 103.14-0.93945 0.33984 2.7207 7.5234 0.93945-0.33984z"/>
  <path d="m76.83 113.32-0.93945 0.33984 2.7188 7.5234 0.94141-0.33984z"/>
 </g>
 <g stroke-dashoffset=".37795" stroke-linecap="round" stroke-width=".26458">
  <path d="m39.93 110.69v-1.1684l-0.93557-1.9219h0.33867l0.635 1.3166q0.0508 0.1016 0.08043 0.1778 0.03387 0.0762 0.04657 0.1143 0.0127-0.0381 0.04233-0.1143 0.03387-0.0762 0.08467-0.1778l0.63923-1.3166h0.32597l-0.93557 1.9219v1.1684z" aria-label="Y"/>
  <g style="font-variation-settings:'wght' 270" aria-label="+299.025">
   <path d="m106.88 111.83v-0.84667h-0.82127v-0.28363h0.82127v-0.8509h0.31327v0.8509h0.82126v0.28363h-0.82126v0.84667zm1.8076 0.41063v-0.2921l1.0583-1.1303q0.22013-0.22437 0.3175-0.42757 0.0974-0.20743 0.0974-0.40216 0-0.27093-0.16086-0.4318-0.16087-0.1651-0.4318-0.1651-0.2794 0-0.4445 0.16933-0.1651 0.1651-0.1651 0.44027h-0.3175q4e-3 -0.27093 0.11853-0.4699 0.11853-0.2032 0.32597-0.31327 0.20743-0.11006 0.4826-0.11006 0.2794 0 0.4826 0.11006 0.20743 0.11007 0.32173 0.30904 0.1143 0.19896 0.1143 0.46566 0 0.2286-0.12277 0.4826t-0.3937 0.53763l-0.89746 0.9398h1.452v0.28787zm3.0099 0 0.8128-1.3716-0.0127-8e-3q-0.0339 0.0423-0.10583 0.0847-0.0677 0.0423-0.1651 0.0677-0.0931 0.0254-0.20743 0.0254-0.25824 0-0.4572-0.11853-0.19474-0.11853-0.30904-0.3302-0.11006-0.21167-0.11006-0.49107 0-0.29633 0.12276-0.51646 0.127-0.22437 0.3429-0.34713 0.22014-0.127 0.50377-0.127 0.2921 0 0.51223 0.127 0.22013 0.12276 0.3429 0.3429 0.12277 0.22013 0.12277 0.51223 0 0.19896-0.0677 0.4064-0.0677 0.20743-0.19473 0.42756l-0.75776 1.3166zm0.4191-1.4563q0.2921 0 0.47413-0.1905 0.18204-0.1905 0.18204-0.49953 4e-3 -0.21166-0.0804-0.3683-0.0847-0.15663-0.23283-0.24553-0.14393-0.0889-0.3429-0.0889-0.1905 0-0.33866 0.0889-0.14817 0.0889-0.23284 0.24553-0.0847 0.15664-0.0847 0.3683 0 0.2032 0.0847 0.35983 0.0847 0.15664 0.23284 0.24554 0.14816 0.0847 0.33866 0.0847zm2.1209 1.4563 0.8128-1.3716-0.0127-8e-3q-0.0339 0.0423-0.10583 0.0847-0.0677 0.0423-0.1651 0.0677-0.0931 0.0254-0.20744 0.0254-0.25823 0-0.4572-0.11853-0.19473-0.11853-0.30903-0.3302-0.11006-0.21167-0.11006-0.49107 0-0.29633 0.12276-0.51646 0.127-0.22437 0.3429-0.34713 0.22013-0.127 0.50377-0.127 0.2921 0 0.51223 0.127 0.22013 0.12276 0.3429 0.3429 0.12277 0.22013 0.12277 0.51223 0 0.19896-0.0677 0.4064-0.0677 0.20743-0.19473 0.42756l-0.75777 1.3166zm0.4191-1.4563q0.2921 0 0.47413-0.1905 0.18204-0.1905 0.18204-0.49953 4e-3 -0.21166-0.0804-0.3683-0.0847-0.15663-0.23283-0.24553-0.14393-0.0889-0.3429-0.0889-0.1905 0-0.33867 0.0889-0.14816 0.0889-0.23283 0.24553-0.0847 0.15664-0.0847 0.3683 0 0.2032 0.0847 0.35983 0.0847 0.15664 0.23283 0.24554 0.14817 0.0847 0.33867 0.0847z"/>
   <path d="m116.77 112.27q-0.0988 0-0.16087-0.0593-0.0621-0.0621-0.0621-0.16087 0-0.0988 0.0621-0.16087 0.0621-0.0621 0.16087-0.0621 0.0988 0 0.16086 0.0621 0.0621 0.0621 0.0621 0.16087 0 0.0988-0.0621 0.16087-0.0621 0.0593-0.16086 0.0593zm1.6933 0q-0.18344 0-0.32173-0.0734-0.13547-0.0762-0.20885-0.21166-0.0734-0.13829-0.0734-0.32174v-0.90311q0-0.18626 0.0734-0.32173t0.20885-0.20884q0.13829-0.0762 0.32173-0.0762 0.18909 0 0.32173 0.0762 0.13547 0.0734 0.20885 0.20884 0.0734 0.13547 0.0734 0.32173v0.90311q0 0.18345-0.0734 0.32174-0.0734 0.13546-0.20885 0.21166-0.13546 0.0734-0.32173 0.0734zm0-0.18344q0.18062 0 0.28787-0.11571 0.11006-0.11571 0.11006-0.30763v-0.90311q0-0.19191-0.11006-0.30762-0.10725-0.11571-0.28787-0.11571t-0.29069 0.11571q-0.10724 0.11571-0.10724 0.30762v0.90311q0 0.19192 0.10724 0.30763 0.11007 0.11571 0.29069 0.11571zm0-0.73096q-0.0706 0-0.11571-0.0395-0.0423-0.0395-0.0423-0.11289 0-0.0734 0.0423-0.11006 0.0451-0.0367 0.11571-0.0367 0.0734 0 0.11571 0.0367 0.0423 0.0367 0.0423 0.11006 0 0.0734-0.0423 0.11289-0.0423 0.0395-0.11571 0.0395zm1.1007 0.88618v-0.19473l0.70555-0.75354q0.14676-0.14957 0.21167-0.28504 0.0649-0.13829 0.0649-0.26811 0-0.18062-0.10724-0.28787-0.10725-0.11006-0.28787-0.11006-0.18627 0-0.29633 0.11288-0.11007 0.11007-0.11007 0.29352h-0.21167q3e-3 -0.18063 0.079-0.31327 0.079-0.13547 0.21731-0.20885 0.13829-0.0734 0.32173-0.0734 0.18627 0 0.32173 0.0734 0.13829 0.0734 0.21449 0.20603 0.0762 0.13264 0.0762 0.31044 0 0.1524-0.0818 0.32173-0.0819 0.16934-0.26247 0.35843l-0.59831 0.62653h0.96802v0.19191zm2.2691 0.0282q-0.27375 0-0.43744-0.15804-0.16369-0.15805-0.16369-0.42898h0.21167q0 0.18344 0.10724 0.29069 0.10725 0.10724 0.28505 0.10724t0.28504-0.10724q0.10725-0.10725 0.10725-0.29069v-0.12982q0-0.18909-0.10443-0.29633-0.1016-0.10725-0.2794-0.10725h-0.54186v-0.96802h1.0724v0.19191h-0.87489l6e-3 0.58138h0.34713q0.28222 0 0.43462 0.15804 0.1524 0.15522 0.1524 0.44027v0.12982q0 0.27093-0.16369 0.42898-0.16369 0.15804-0.44309 0.15804z"/>
  </g>
  <g style="font-variation-settings:'wght' 270" aria-label="-336.7">
   <path d="m3.8125 99.99v-0.28363h1.3547v0.28363zm3.1708 1.2996q-0.41063 0-0.65617-0.23707-0.24553-0.23706-0.24553-0.64346h0.3175q0 0.27516 0.16087 0.43603 0.16087 0.16087 0.42757 0.16087t0.42757-0.16087 0.16087-0.43603v-0.23707q0-0.27093-0.16087-0.42333-0.15663-0.15663-0.42757-0.15663h-0.3048v-0.2794l0.79163-0.86783h-1.3039v-0.28787h1.6595v0.30057l-0.87207 0.96096 0.029633-0.1143q0.4191 0 0.6604 0.23707 0.24553 0.23283 0.24553 0.63076v0.23707q0 0.4064-0.24553 0.64346-0.24553 0.23707-0.66463 0.23707zm2.54 0q-0.41063 0-0.65617-0.23707-0.24553-0.23706-0.24553-0.64346h0.3175q0 0.27516 0.16087 0.43603 0.16087 0.16087 0.42757 0.16087 0.2667 0 0.42757-0.16087 0.16087-0.16087 0.16087-0.43603v-0.23707q0-0.27093-0.16087-0.42333-0.15663-0.15663-0.42757-0.15663h-0.3048v-0.2794l0.79163-0.86783h-1.3039v-0.28787h1.6595v0.30057l-0.87207 0.96096 0.029633-0.1143q0.4191 0 0.6604 0.23707 0.24553 0.23283 0.24553 0.63076v0.23707q0 0.4064-0.24553 0.64346-0.24553 0.23707-0.66463 0.23707zm2.5908 0q-0.2921 0-0.51223-0.12277-0.22013-0.127-0.34713-0.34713-0.12277-0.22013-0.12277-0.51223 0-0.2032 0.0762-0.41064 0.0762-0.20743 0.19897-0.42333l0.74507-1.3166h0.3556l-0.8001 1.3716 0.0127 0.0085q0.05927-0.07197 0.18203-0.12277 0.127-0.0508 0.28787-0.0508 0.27093 0 0.4699 0.11853 0.19897 0.11853 0.31327 0.3302 0.1143 0.21166 0.1143 0.49106 0 0.2921-0.127 0.51647-0.12277 0.22013-0.3429 0.34713-0.2159 0.12277-0.50377 0.12277zm-0.0042-0.28363q0.19897 0 0.3429-0.0847 0.14817-0.0889 0.23283-0.24553 0.08467-0.16087 0.08467-0.36407 0-0.20743-0.08467-0.36406-0.08467-0.15663-0.23283-0.24553-0.14393-0.0889-0.3429-0.0889-0.19473 0-0.3429 0.0889-0.14817 0.0889-0.23283 0.24553-0.08043 0.15664-0.08467 0.36406 0 0.2032 0.08043 0.36407 0.08467 0.15663 0.23283 0.24553 0.1524 0.0847 0.34713 0.0847z"/>
   <path d="m14.227 101.28q-0.09878 0-0.16087-0.0593-0.06209-0.0621-0.06209-0.16086 0-0.0988 0.06209-0.16087 0.06209-0.0621 0.16087-0.0621 0.09878 0 0.16087 0.0621 0.06209 0.0621 0.06209 0.16087 0 0.0988-0.06209 0.16086-0.06209 0.0593-0.16087 0.0593zm1.3998-0.0282 0.75071-1.8683h-0.85231v0.37251h-0.21167v-0.56444h1.2898v0.20038l-0.74507 1.8598z"/>
  </g>
  <g style="font-variation-settings:'wght' 270" aria-label="+0.275">
   <path d="m78.862 121.89v-0.84667h-0.82127v-0.28363h0.82127v-0.8509h0.31327v0.8509h0.82127v0.28363h-0.82127v0.84667zm2.6966 0.45296q-0.27517 0-0.4826-0.11006-0.2032-0.1143-0.31327-0.3175-0.11007-0.20744-0.11007-0.4826v-1.3547q0-0.2794 0.11007-0.4826 0.11007-0.2032 0.31327-0.31326 0.20743-0.1143 0.4826-0.1143 0.28363 0 0.4826 0.1143 0.2032 0.11006 0.31327 0.31326 0.11007 0.2032 0.11007 0.4826v1.3547q0 0.27516-0.11007 0.4826-0.11007 0.2032-0.31327 0.3175-0.2032 0.11006-0.4826 0.11006zm0-0.27516q0.27093 0 0.4318-0.17357 0.1651-0.17357 0.1651-0.46143v-1.3547q0-0.28786-0.1651-0.46143-0.16087-0.17357-0.4318-0.17357t-0.43603 0.17357q-0.16087 0.17357-0.16087 0.46143v1.3547q0 0.28786 0.16087 0.46143 0.1651 0.17357 0.43603 0.17357zm0-1.0964q-0.10583 0-0.17357-0.0593-0.0635-0.0593-0.0635-0.16934 0-0.11006 0.0635-0.16509 0.06773-0.055 0.17357-0.055 0.11007 0 0.17357 0.055t0.0635 0.16509q0 0.11007-0.0635 0.16934-0.0635 0.0593-0.17357 0.0593z"/>
   <path d="m83.676 122.33q-0.09878 0-0.16087-0.0593-0.06209-0.0621-0.06209-0.16087 0-0.0988 0.06209-0.16087 0.06209-0.0621 0.16087-0.0621 0.09878 0 0.16087 0.0621 0.06209 0.0621 0.06209 0.16087 0 0.0988-0.06209 0.16087-0.06209 0.0593-0.16087 0.0593zm1.1007-0.0282v-0.19473l0.70556-0.75354q0.14676-0.14957 0.21167-0.28504 0.06491-0.13829 0.06491-0.26811 0-0.18062-0.10724-0.28787-0.10724-0.11006-0.28787-0.11006-0.18627 0-0.29633 0.11288-0.11007 0.11007-0.11007 0.29352h-0.21167q0.0028-0.18063 0.07902-0.31327 0.07902-0.13547 0.21731-0.20884 0.13829-0.0734 0.32173-0.0734 0.18627 0 0.32173 0.0734 0.13829 0.0734 0.21449 0.20602 0.0762 0.13264 0.0762 0.31044 0 0.1524-0.08184 0.32173-0.08185 0.16934-0.26247 0.35843l-0.59831 0.62653h0.96802v0.19191zm1.9925 0 0.75071-1.8683h-0.85231v0.37253h-0.21167v-0.56444h1.2898v0.20038l-0.74507 1.8598zm1.9699 0.0282q-0.27376 0-0.43744-0.15804-0.16369-0.15805-0.16369-0.42898h0.21167q0 0.18344 0.10724 0.29069 0.10724 0.10724 0.28504 0.10724 0.1778 0 0.28504-0.10724 0.10724-0.10725 0.10724-0.29069v-0.12982q0-0.18909-0.10442-0.29633-0.1016-0.10725-0.2794-0.10725h-0.54187v-0.96802h1.0724v0.19191h-0.87489l0.0056 0.58138h0.34713q0.28222 0 0.43462 0.15804 0.1524 0.15522 0.1524 0.44027v0.12982q0 0.27093-0.16369 0.42898-0.16369 0.15804-0.44309 0.15804z"/>
  </g>
  <g style="font-variation-settings:'wght' 270" aria-label="+336.7">
   <path d="m62.407 121.89v-0.84667h-0.82127v-0.28363h0.82127v-0.8509h0.31327v0.8509h0.82126v0.28363h-0.82126v0.84667zm2.6501 0.45296q-0.41063 0-0.65617-0.23706-0.24553-0.23707-0.24553-0.64347h0.3175q0 0.27517 0.16087 0.43603 0.16087 0.16087 0.42757 0.16087 0.2667 0 0.42757-0.16087 0.16087-0.16086 0.16087-0.43603v-0.23707q0-0.27093-0.16087-0.42333-0.15663-0.15663-0.42757-0.15663h-0.3048v-0.2794l0.79163-0.86783h-1.3039v-0.28787h1.6595v0.30057l-0.87207 0.96096 0.02963-0.1143q0.4191 0 0.6604 0.23707 0.24553 0.23283 0.24553 0.63076v0.23707q0 0.4064-0.24553 0.64347-0.24553 0.23706-0.66463 0.23706zm2.54 0q-0.41063 0-0.65617-0.23706-0.24553-0.23707-0.24553-0.64347h0.3175q0 0.27517 0.16087 0.43603 0.16087 0.16087 0.42757 0.16087t0.42757-0.16087q0.16087-0.16086 0.16087-0.43603v-0.23707q0-0.27093-0.16087-0.42333-0.15663-0.15663-0.42757-0.15663h-0.3048v-0.2794l0.79163-0.86783h-1.3039v-0.28787h1.6595v0.30057l-0.87207 0.96096 0.02963-0.1143q0.4191 0 0.6604 0.23707 0.24553 0.23283 0.24553 0.63076v0.23707q0 0.4064-0.24553 0.64347-0.24553 0.23706-0.66463 0.23706zm2.5908 0q-0.2921 0-0.51223-0.12276-0.22013-0.127-0.34713-0.34714-0.12277-0.22013-0.12277-0.51223 0-0.2032 0.0762-0.41063 0.0762-0.20744 0.19897-0.42333l0.74507-1.3166h0.3556l-0.8001 1.3716 0.0127 8e-3q0.05927-0.072 0.18203-0.12277 0.127-0.0508 0.28787-0.0508 0.27093 0 0.4699 0.11853 0.19897 0.11853 0.31327 0.3302t0.1143 0.49107q0 0.2921-0.127 0.51646-0.12277 0.22014-0.3429 0.34714-0.2159 0.12276-0.50377 0.12276zm-0.0042-0.28363q0.19897 0 0.3429-0.0847 0.14817-0.0889 0.23283-0.24553 0.08467-0.16087 0.08467-0.36407 0-0.20743-0.08467-0.36406-0.08467-0.15664-0.23283-0.24554-0.14393-0.0889-0.3429-0.0889-0.19473 0-0.3429 0.0889-0.14817 0.0889-0.23283 0.24554-0.08043 0.15663-0.08467 0.36406 0 0.2032 0.08043 0.36407 0.08467 0.15663 0.23283 0.24553 0.1524 0.0847 0.34713 0.0847z"/>
   <path d="m72.3 122.33q-0.09878 0-0.16087-0.0593-0.06209-0.0621-0.06209-0.16087 0-0.0988 0.06209-0.16087 0.06209-0.0621 0.16087-0.0621 0.09878 0 0.16087 0.0621 0.06209 0.0621 0.06209 0.16087 0 0.0988-0.06209 0.16087-0.06209 0.0593-0.16087 0.0593zm1.3998-0.0282 0.75071-1.8683h-0.85231v0.37253h-0.21167v-0.56444h1.2898v0.20038l-0.74507 1.8598z"/>
  </g>
  <path d="m96.847 117.29v-0.3175l1.4393-2.4807h-1.4224v-0.2921h1.7399v0.3302l-1.4351 2.468h1.4817v0.2921z" aria-label="Z"/>
 </g>
 <path d="m108.3 73.703a0.1325 0.1325 0 0 0-0.13281 0.13281v29.482a0.1325 0.1325 0 0 0 0.13281 0.13281 0.1325 0.1325 0 0 0 0.13281-0.13281v-29.482a0.1325 0.1325 0 0 0-0.13281-0.13281z" stroke-dashoffset=".37795" stroke-linecap="round"/>
 <g fill="context-stroke">
  <path d="m104.3 73.336v1h8v-1z"/>
  <path d="m104.3 102.82v1h8v-1z"/>
 </g>
 <path d="m108.3 28.264a0.1325 0.1325 0 0 0-0.13281 0.13281v30.133a0.1325 0.1325 0 0 0 0.13281 0.13281 0.1325 0.1325 0 0 0 0.13281-0.13281v-30.133a0.1325 0.1325 0 0 0-0.13281-0.13281z" stroke-dashoffset=".37795" stroke-linecap="round"/>
 <g fill="context-stroke">
  <path d="m104.3 27.896v1h8v-1z"/>
  <path d="m104.3 58.029v1h8v-1z"/>
 </g>
 <g stroke-dashoffset=".37795" stroke-linecap="round" stroke-width=".26458">
  <path d="m111.81 67.728 0.89746-1.5833-0.84666-1.5071h0.3683l0.49106 0.92287q0.0381 0.07197 0.0889 0.16933 0.0508 0.09313 0.0847 0.15663 0.0296-0.0635 0.0804-0.15663 0.055-0.09737 0.0931-0.16933l0.49953-0.92287h0.35137l-0.84667 1.4901 0.89747 1.6002h-0.36403l-0.5461-1.0118q-0.0381-0.07197-0.0889-0.1651-0.0508-0.09737-0.0804-0.1651-0.0339 0.06773-0.0847 0.16087-0.0508 0.09313-0.0889 0.1651l-0.55457 1.016z" aria-label="X"/>
  <g style="font-variation-settings:'wght' 270" aria-label="+341.53">
   <path d="m112.33 29.377v-0.84667h-0.82127v-0.28363h0.82127v-0.8509h0.31326v0.8509h0.82127v0.28363h-0.82127v0.84667zm2.6501 0.45297q-0.41063 0-0.65616-0.23707-0.24554-0.23707-0.24554-0.64347h0.3175q0 0.27517 0.16087 0.43603 0.16087 0.16087 0.42757 0.16087t0.42756-0.16087q0.16087-0.16087 0.16087-0.43603v-0.23707q0-0.27093-0.16087-0.42333-0.15663-0.15663-0.42756-0.15663h-0.3048v-0.2794l0.79163-0.86783h-1.3039v-0.28787h1.6595v0.30057l-0.87207 0.96097 0.0296-0.1143q0.4191 0 0.6604 0.23707 0.24553 0.23283 0.24553 0.63077v0.23707q0 0.4064-0.24553 0.64347-0.24554 0.23707-0.66464 0.23707zm3.0395-0.04233v-0.69427h-1.4012v-0.5334l1.1557-1.8627h0.35984l-1.198 1.9389v0.16933h1.0837v-0.79587h0.32173v1.778zm1.215 0v-0.28787h0.8509v-2.5231l-0.8382 0.6223v-0.36407l0.7239-0.53763h0.4318v2.8025h0.70273v0.28787z"/>
   <path d="m122.23 29.816q-0.0988 0-0.16087-0.05927-0.0621-0.06209-0.0621-0.16087 0-0.09878 0.0621-0.16087 0.0621-0.06209 0.16087-0.06209 0.0988 0 0.16086 0.06209 0.0621 0.06209 0.0621 0.16087 0 0.09878-0.0621 0.16087-0.0621 0.05927-0.16086 0.05927zm1.6764 0q-0.27375 0-0.43744-0.15804-0.16369-0.15804-0.16369-0.42898h0.21167q0 0.18344 0.10724 0.29069 0.10725 0.10724 0.28505 0.10724t0.28504-0.10724q0.10725-0.10724 0.10725-0.29069v-0.12982q0-0.18909-0.10443-0.29633-0.1016-0.10724-0.2794-0.10724h-0.54186v-0.96802h1.0724v0.19191h-0.87489l6e-3 0.58138h0.34713q0.28222 0 0.43462 0.15804 0.1524 0.15522 0.1524 0.44027v0.12982q0 0.27093-0.16369 0.42898-0.16369 0.15804-0.44309 0.15804zm1.6792 0q-0.27376 0-0.43745-0.15804-0.16369-0.15804-0.16369-0.42898h0.21167q0 0.18344 0.10725 0.29069 0.10724 0.10724 0.28504 0.10724t0.28504-0.10724q0.10725-0.10724 0.10725-0.29069v-0.15804q0-0.18062-0.10725-0.28222-0.10442-0.10442-0.28504-0.10442h-0.2032v-0.18627l0.52775-0.57856h-0.86924v-0.19191h1.1063v0.20038l-0.58138 0.64064 0.0198-0.0762q0.2794 0 0.44027 0.15804 0.16368 0.15522 0.16368 0.42051v0.15804q0 0.27093-0.16368 0.42898-0.16369 0.15804-0.44309 0.15804z"/>
  </g>
  <g style="font-variation-settings:'wght' 270" aria-label="+3.03">
   <path d="m112.33 59.347v-0.84667h-0.82127v-0.28363h0.82127v-0.8509h0.31326v0.8509h0.82127v0.28363h-0.82127v0.84667zm2.6501 0.45297q-0.41063 0-0.65616-0.23707-0.24554-0.23707-0.24554-0.64347h0.3175q0 0.27517 0.16087 0.43603 0.16087 0.16087 0.42757 0.16087t0.42756-0.16087q0.16087-0.16087 0.16087-0.43603v-0.23707q0-0.27093-0.16087-0.42333-0.15663-0.15663-0.42756-0.15663h-0.3048v-0.2794l0.79163-0.86783h-1.3039v-0.28787h1.6595v0.30057l-0.87207 0.96097 0.0296-0.1143q0.4191 0 0.6604 0.23707 0.24553 0.23283 0.24553 0.63077v0.23707q0 0.4064-0.24553 0.64347-0.24554 0.23707-0.66464 0.23707z"/>
   <path d="m117.15 59.786q-0.0988 0-0.16087-0.05927-0.0621-0.06209-0.0621-0.16087 0-0.09878 0.0621-0.16087 0.0621-0.06209 0.16087-0.06209 0.0988 0 0.16086 0.06209 0.0621 0.06209 0.0621 0.16087 0 0.09878-0.0621 0.16087-0.0621 0.05927-0.16086 0.05927zm1.6933 0q-0.18344 0-0.32173-0.07338-0.13547-0.0762-0.20885-0.21167-0.0734-0.13829-0.0734-0.32173v-0.90311q0-0.18627 0.0734-0.32173 0.0734-0.13547 0.20885-0.20884 0.13829-0.0762 0.32173-0.0762 0.18909 0 0.32173 0.0762 0.13547 0.07338 0.20885 0.20884 0.0734 0.13547 0.0734 0.32173v0.90311q0 0.18344-0.0734 0.32173-0.0734 0.13547-0.20885 0.21167-0.13546 0.07338-0.32173 0.07338zm0-0.18344q0.18062 0 0.28787-0.11571 0.11006-0.11571 0.11006-0.30762v-0.90311q0-0.19191-0.11006-0.30762-0.10725-0.11571-0.28787-0.11571t-0.29069 0.11571q-0.10724 0.11571-0.10724 0.30762v0.90311q0 0.19191 0.10724 0.30762 0.11007 0.11571 0.29069 0.11571zm0-0.73096q-0.0706 0-0.11571-0.03951-0.0423-0.03951-0.0423-0.11289 0-0.07338 0.0423-0.11007 0.0452-0.03669 0.11571-0.03669 0.0734 0 0.11571 0.03669 0.0423 0.03669 0.0423 0.11007 0 0.07338-0.0423 0.11289-0.0423 0.03951-0.11571 0.03951zm1.6623 0.9144q-0.27376 0-0.43745-0.15804-0.16368-0.15804-0.16368-0.42898h0.21166q0 0.18344 0.10725 0.29069 0.10724 0.10724 0.28504 0.10724t0.28504-0.10724q0.10725-0.10724 0.10725-0.29069v-0.15804q0-0.18062-0.10725-0.28222-0.10442-0.10442-0.28504-0.10442h-0.2032v-0.18627l0.52776-0.57856h-0.86925v-0.19191h1.1063v0.20038l-0.58138 0.64064 0.0198-0.0762q0.2794 0 0.44027 0.15804 0.16369 0.15522 0.16369 0.42051v0.15804q0 0.27093-0.16369 0.42898-0.16369 0.15804-0.44309 0.15804z"/>
  </g>
  <g style="font-variation-settings:'wght' 270" aria-label="-3.03">
   <path d="m111.81 73.971v-0.28363h1.3547v0.28363zm3.1708 1.2996q-0.41063 0-0.65616-0.23707-0.24554-0.23707-0.24554-0.64347h0.3175q0 0.27517 0.16087 0.43603 0.16087 0.16087 0.42757 0.16087t0.42756-0.16087q0.16087-0.16087 0.16087-0.43603v-0.23707q0-0.27093-0.16087-0.42333-0.15663-0.15663-0.42756-0.15663h-0.3048v-0.2794l0.79163-0.86783h-1.3039v-0.28787h1.6595v0.30057l-0.87207 0.96097 0.0296-0.1143q0.4191 0 0.6604 0.23707 0.24553 0.23283 0.24553 0.63077v0.23707q0 0.4064-0.24553 0.64347-0.24554 0.23707-0.66464 0.23707z"/>
   <path d="m117.15 75.256q-0.0988 0-0.16087-0.05927-0.0621-0.06209-0.0621-0.16087 0-0.09878 0.0621-0.16087 0.0621-0.06209 0.16087-0.06209 0.0988 0 0.16086 0.06209 0.0621 0.06209 0.0621 0.16087 0 0.09878-0.0621 0.16087-0.0621 0.05927-0.16086 0.05927zm1.6933 0q-0.18344 0-0.32173-0.07338-0.13547-0.0762-0.20885-0.21167-0.0734-0.13829-0.0734-0.32173v-0.90311q0-0.18627 0.0734-0.32173 0.0734-0.13547 0.20885-0.20884 0.13829-0.0762 0.32173-0.0762 0.18909 0 0.32173 0.0762 0.13547 0.07338 0.20885 0.20884 0.0734 0.13547 0.0734 0.32173v0.90311q0 0.18344-0.0734 0.32173-0.0734 0.13547-0.20885 0.21167-0.13546 0.07338-0.32173 0.07338zm0-0.18344q0.18062 0 0.28787-0.11571 0.11006-0.11571 0.11006-0.30762v-0.90311q0-0.19191-0.11006-0.30762-0.10725-0.11571-0.28787-0.11571t-0.29069 0.11571q-0.10724 0.11571-0.10724 0.30762v0.90311q0 0.19191 0.10724 0.30762 0.11007 0.11571 0.29069 0.11571zm0-0.73096q-0.0706 0-0.11571-0.03951-0.0423-0.03951-0.0423-0.11289 0-0.07338 0.0423-0.11007 0.0452-0.03669 0.11571-0.03669 0.0734 0 0.11571 0.03669 0.0423 0.03669 0.0423 0.11007 0 0.07338-0.0423 0.11289-0.0423 0.03951-0.11571 0.03951zm1.6623 0.9144q-0.27376 0-0.43745-0.15804-0.16368-0.15804-0.16368-0.42898h0.21166q0 0.18344 0.10725 0.29069 0.10724 0.10724 0.28504 0.10724t0.28504-0.10724q0.10725-0.10724 0.10725-0.29069v-0.15804q0-0.18062-0.10725-0.28222-0.10442-0.10442-0.28504-0.10442h-0.2032v-0.18627l0.52776-0.57856h-0.86925v-0.19191h1.1063v0.20038l-0.58138 0.64064 0.0198-0.0762q0.2794 0 0.44027 0.15804 0.16369 0.15522 0.16369 0.42051v0.15804q0 0.27093-0.16369 0.42898t-0.44309 0.15804z"/>
  </g>
  <g style="font-variation-settings:'wght' 270" aria-label="-341.53">
   <path d="m111.81 103.36v-0.28363h1.3547v0.28363zm3.1708 1.2996q-0.41063 0-0.65616-0.23707-0.24554-0.23706-0.24554-0.64346h0.3175q0 0.27516 0.16087 0.43603t0.42757 0.16087 0.42756-0.16087q0.16087-0.16087 0.16087-0.43603v-0.23707q0-0.27093-0.16087-0.42333-0.15663-0.15663-0.42756-0.15663h-0.3048v-0.2794l0.79163-0.86784h-1.3039v-0.28786h1.6595v0.30056l-0.87207 0.96097 0.0296-0.1143q0.4191 0 0.6604 0.23707 0.24553 0.23283 0.24553 0.63076v0.23707q0 0.4064-0.24553 0.64346-0.24554 0.23707-0.66464 0.23707zm3.0395-0.0423v-0.69427h-1.4012v-0.5334l1.1557-1.8627h0.35984l-1.198 1.9389v0.16933h1.0837v-0.79586h0.32173v1.778zm1.215 0v-0.28787h0.8509v-2.5231l-0.8382 0.6223v-0.36407l0.7239-0.53763h0.4318v2.8025h0.70273v0.28787z"/>
   <path d="m122.23 104.65q-0.0988 0-0.16087-0.0593-0.0621-0.0621-0.0621-0.16086 0-0.0988 0.0621-0.16087 0.0621-0.0621 0.16087-0.0621 0.0988 0 0.16086 0.0621 0.0621 0.0621 0.0621 0.16087 0 0.0988-0.0621 0.16086-0.0621 0.0593-0.16086 0.0593zm1.6764 0q-0.27375 0-0.43744-0.15804-0.16369-0.15805-0.16369-0.42898h0.21167q0 0.18344 0.10724 0.29069 0.10725 0.10724 0.28505 0.10724t0.28504-0.10724q0.10725-0.10725 0.10725-0.29069v-0.12982q0-0.18909-0.10443-0.29634-0.1016-0.10724-0.2794-0.10724h-0.54186v-0.96802h1.0724v0.19191h-0.87489l6e-3 0.58137h0.34713q0.28222 0 0.43462 0.15805 0.1524 0.15522 0.1524 0.44027v0.12982q0 0.27093-0.16369 0.42898-0.16369 0.15804-0.44309 0.15804zm1.6792 0q-0.27376 0-0.43745-0.15804-0.16369-0.15805-0.16369-0.42898h0.21167q0 0.18344 0.10725 0.29069 0.10724 0.10724 0.28504 0.10724t0.28504-0.10724q0.10725-0.10725 0.10725-0.29069v-0.15805q0-0.18062-0.10725-0.28222-0.10442-0.10442-0.28504-0.10442h-0.2032v-0.18627l0.52775-0.57855h-0.86924v-0.19191h1.1063v0.20037l-0.58138 0.64065 0.0198-0.0762q0.2794 0 0.44027 0.15804 0.16368 0.15522 0.16368 0.42051v0.15805q0 0.27093-0.16368 0.42898-0.16369 0.15804-0.44309 0.15804z"/>
  </g>
 </g>
 <path d="m108.17 58.73v0.26562h0.26562v-0.26562zm0 0.53125v0.26562h0.26562v-0.26562zm0 0.5293v0.26562h0.26562v-0.26562zm0 0.53125v0.26367h0.26562v-0.26367zm0 0.5293v0.26562h0.26562v-0.26562zm0 0.5293v0.26562h0.26562v-0.26562zm0 0.53125v0.26367h0.26562v-0.26367zm0 0.5293v0.26562h0.26562v-0.26562zm0 0.5293v0.26562h0.26562v-0.26562zm0 0.53125v0.26367h0.26562v-0.26367zm0 0.5293v0.26562h0.26562v-0.26562zm0 0.5293v0.26562h0.26562v-0.26562zm0 0.53125v0.26367h0.26562v-0.26367zm0 0.5293v0.26562h0.26562v-0.26562zm0 0.53125v0.26367h0.26562v-0.26367zm0 0.5293v0.26562h0.26562v-0.26562zm0 0.5293v0.26562h0.26562v-0.26562zm0 0.53125v0.26367h0.26562v-0.26367zm0 0.5293v0.26562h0.26562v-0.26562zm0 0.5293v0.26562h0.26562v-0.26562zm0 0.53125v0.26367h0.26562v-0.26367zm0 0.5293v0.26562h0.26562v-0.26562zm0 0.5293v0.26562h0.26562v-0.26562zm0 0.53125v0.26367h0.26562v-0.26367zm0 0.5293v0.26562h0.26562v-0.26562zm0 0.5293v0.26562h0.26562v-0.26562zm0 0.53125v0.26562h0.26562v-0.26562zm0 0.5293v0.26562h0.26562v-0.26562zm0 0.53125v0.26367h0.26562v-0.26367z" stroke-dasharray="0.265001"/>
 <g fill="context-stroke">
  <path d="m104.3 58.029v1h8v-1z"/>
  <path d="m104.3 73.336v1h8v-1z"/>
 </g>
 <path d="m16.164 18.43v29.67h0.26562v-29.67z" stroke-dashoffset=".37795"/>
 <path d="m16.297 17.473-3.3535 3.3535a0.5 0.5 0 0 0 0 0.70703 0.5 0.5 0 0 0 0.70703 0l2.6465-2.6465 2.6465 2.6465a0.5 0.5 0 0 0 0.70703 0 0.5 0.5 0 0 0 0-0.70703z" fill="context-stroke" stroke-linecap="round"/>
 <path d="m16.164 63.719v29.5h0.26562v-29.5z" stroke-dashoffset=".37795"/>
 <path d="m12.943 90.115a0.5 0.5 0 0 0 0 0.70703l3.3535 3.3535 3.3535-3.3535a0.5 0.5 0 0 0 0-0.70703 0.5 0.5 0 0 0-0.70703 0l-2.6465 2.6465-2.6465-2.6465a0.5 0.5 0 0 0-0.70703 0z" fill="context-stroke" stroke-linecap="round"/>
 <g stroke-dashoffset=".37795" stroke-linecap="round" stroke-width=".26458" style="font-variation-settings:'wght' 270" aria-label="e-">
  <path d="m10.941 34.425q-0.2667 0-0.46567-0.11007-0.19897-0.11007-0.30903-0.30903-0.10583-0.2032-0.10583-0.4826v-0.6096q0-0.2794 0.10583-0.47837 0.11007-0.2032 0.30903-0.31327 0.19897-0.11007 0.46567-0.11007 0.27093 0 0.46567 0.11007 0.19897 0.10583 0.3048 0.30057 0.11007 0.19473 0.11007 0.46143v0.41063h-1.4478v0.25823q0 0.27517 0.1524 0.43603 0.1524 0.15663 0.41487 0.15663 0.22437 0 0.3683-0.09313 0.14817-0.09313 0.1778-0.254h0.3175q-0.04233 0.28787-0.27517 0.4572-0.23283 0.16933-0.58843 0.16933zm0.56727-1.3462v-0.19473q0-0.28363-0.14817-0.4445-0.14817-0.16087-0.4191-0.16087t-0.4191 0.16087q-0.14817 0.15663-0.14817 0.4445v0.15663h1.1726z"/>
  <path d="m12.596 31.872v-0.18436h0.88053v0.18436z"/>
  <path d="m10.941 80.351q-0.2667 0-0.46567-0.11007-0.19897-0.11007-0.30903-0.30903-0.10583-0.2032-0.10583-0.4826v-0.6096q0-0.2794 0.10583-0.47837 0.11007-0.2032 0.30903-0.31327 0.19897-0.11007 0.46567-0.11007 0.27093 0 0.46567 0.11007 0.19897 0.10583 0.3048 0.30057 0.11007 0.19473 0.11007 0.46143v0.41063h-1.4478v0.25823q0 0.27517 0.1524 0.43603 0.1524 0.15663 0.41487 0.15663 0.22437 0 0.3683-0.09313 0.14817-0.09313 0.1778-0.254h0.3175q-0.04233 0.28787-0.27517 0.4572-0.23283 0.16933-0.58843 0.16933zm0.56727-1.3462v-0.19473q0-0.28363-0.14817-0.4445-0.14817-0.16087-0.4191-0.16087t-0.4191 0.16087q-0.14817 0.15663-0.14817 0.4445v0.15663h1.1726z"/>
  <path d="m12.596 77.799v-0.18436h0.88053v0.18436z"/>
 </g>
 <g stroke-linecap="square">
  <path d="m107.37 28.396h1.8587" fill="#dfc184"/>
  <path d="m107.24 28.264v0.26562h2.123v-0.26562h-1.9902z"/>
 </g>
 <g stroke-linecap="square">
  <path d="m107.37 58.53h1.8587" fill="#dfc184"/>
  <path d="m107.24 58.398v0.26367h2.123v-0.26367h-1.9902z"/>
 </g>
 <g stroke-linecap="square">
  <path d="m107.37 73.836h1.8587" fill="#dfc184"/>
  <path d="m107.24 73.703v0.26562h2.123v-0.26562h-1.9902z"/>
 </g>
 <g stroke-linecap="square">
  <path d="m107.37 103.32h1.8587" fill="#dfc184"/>
  <path d="m107.24 103.19v0.26562h2.123v-0.26562h-1.9902z"/>
 </g>
 <g stroke-linecap="square">
  <path d="m105.56 106.2 0.63346 1.7474" fill="#dfc184"/>
  <path d="m105.64 106.03-0.24804 0.0898 0.0449 0.125 0.63281 1.7461 0.0449 0.125 0.25-0.0898-0.0449-0.125-0.63281-1.7461z"/>
 </g>
 <g stroke-linecap="square">
  <path d="m77.404 116.38 0.63346 1.7474" fill="#dfc184"/>
  <path d="m77.482 116.21-0.24805 0.0898 0.04492 0.125 0.63281 1.7461 0.04492 0.125 0.25-0.0898-0.04492-0.125-0.63476-1.748z"/>
 </g>
 <g stroke-linecap="square">
  <path d="m76.017 116.3-0.63074 1.7484" fill="#dfc184"/>
  <path d="m75.938 116.13-0.04492 0.125-0.63086 1.748-0.04492 0.125 0.25 0.0898 0.04492-0.125 0.63086-1.748 0.04492-0.125z"/>
 </g>
 <g stroke-linecap="square">
  <path d="m18.816 95.552-0.63074 1.7484" fill="#dfc184"/>
  <path d="m18.736 95.383-0.04492 0.125-0.63086 1.748-0.04492 0.125 0.24805 0.08984 0.04687-0.125 0.62891-1.748 0.04492-0.125z"/>
 </g>
 <path d="m17.094 92.293a0.1325 0.1325 0 0 0-0.09375 0.041015l-0.70312 0.75-0.70508-0.75a0.1325 0.1325 0 0 0-0.1875-0.0059 0.1325 0.1325 0 0 0-0.0059 0.1875l0.89844 0.95703 0.89648-0.95703a0.1325 0.1325 0 0 0-0.0059-0.1875 0.1325 0.1325 0 0 0-0.09375-0.03516z" stroke-linecap="round"/>
 <path d="m16.297 18.176-0.89844 0.95703a0.1325 0.1325 0 0 0 0.0059 0.1875 0.1325 0.1325 0 0 0 0.1875-0.0059l0.70508-0.75 0.70312 0.75a0.1325 0.1325 0 0 0 0.1875 0.0059 0.1325 0.1325 0 0 0 0.0059-0.1875z" stroke-linecap="round"/>
</svg>
