<?xml version="1.0" encoding="UTF-8" standalone="no"?>
<svg
   width="91"
   height="91"
   viewBox="0 0 91 91"
   version="1.1"
   id="svg1"
   sodipodi:docname="bash.svg"
   inkscape:version="1.4 (e7c3feb1, 2024-10-09)"
   xmlns:inkscape="http://www.inkscape.org/namespaces/inkscape"
   xmlns:sodipodi="http://sodipodi.sourceforge.net/DTD/sodipodi-0.dtd"
   xmlns="http://www.w3.org/2000/svg"
   xmlns:svg="http://www.w3.org/2000/svg"
   xmlns:rdf="http://www.w3.org/1999/02/22-rdf-syntax-ns#"
   xmlns:cc="http://creativecommons.org/ns#"
   xmlns:dc="http://purl.org/dc/elements/1.1/">
  <sodipodi:namedview
     id="namedview1"
     pagecolor="#ffffff"
     bordercolor="#999999"
     borderopacity="1"
     inkscape:showpageshadow="2"
     inkscape:pageopacity="0"
     inkscape:pagecheckerboard="0"
     inkscape:deskcolor="#d1d1d1"
     inkscape:zoom="1.9549707"
     inkscape:cx="26.343105"
     inkscape:cy="76.983249"
     inkscape:window-width="1496"
     inkscape:window-height="900"
     inkscape:window-x="7"
     inkscape:window-y="46"
     inkscape:window-maximized="0"
     inkscape:current-layer="Page-1" />
  <!-- Generator: Sketch 41.1 (35376) - http://www.bohemiancoding.com/sketch -->
  <title
     id="title1">Page 1</title>
  <desc
     id="desc1">Created with Sketch.</desc>
  <defs
     id="defs1" />
  <g
     id="Page-1"
     stroke="none"
     stroke-width="1"
     fill="none"
     fill-rule="evenodd">
    <g
       transform="translate(5.7114,-0.9907)"
       id="Group-48">
      <g
         transform="translate(0,0.945)"
         id="g1">
        <path
           d="M 73.9497,18.7117 45.3127,1.7127 c -3.418,-2.029 -7.631,-2.029 -11.049,0 l -28.637,16.999 c -3.417,2.029 -5.523,5.778 -5.523,9.836 v 33.998 c 0,4.057 2.106,7.808 5.524,9.837 l 28.637,16.996 c 1.709,1.015 3.615,1.521 5.524,1.521 1.908,0 3.814,-0.506 5.523,-1.521 l 28.637,-16.996 c 3.418,-2.029 5.525,-5.78 5.525,-9.837 v -33.998 c 0,-4.058 -2.107,-7.807 -5.524,-9.836 z"
           id="Fill-2"
           fill="#fefefe" />
        <path
           d="M 35.2656,87.6382 6.6286,70.6422 c -2.801,-1.663 -4.541,-4.765 -4.541,-8.097 v -33.997 c 0,-3.332 1.74,-6.434 4.54,-8.096 l 28.638,-16.999 c 1.373,-0.815 2.937,-1.246 4.523,-1.246 1.585,0 3.149,0.431 4.523,1.246 l 28.637,16.999 c 2.36,1.401 3.952,3.827 4.4,6.548 -0.95,-2.027 -3.092,-2.578 -5.588,-1.12 l -27.092,16.734 c -3.378,1.975 -5.869,4.191 -5.871,8.264 v 33.383 c -0.002,2.439 0.983,4.019 2.496,4.477 -0.497,0.086 -0.998,0.146 -1.505,0.146 -1.586,0 -3.15,-0.431 -4.523,-1.246 m 38.684,-68.927 -28.637,-16.998 c -1.709,-1.015 -3.617,-1.522 -5.524,-1.522 -1.908,0 -3.816,0.507 -5.525,1.522 l -28.637,16.998 c -3.417,2.029 -5.523,5.779 -5.523,9.837 v 33.997 c 0,4.057 2.106,7.808 5.524,9.837 l 28.637,16.997 c 1.71,1.014 3.616,1.521 5.524,1.521 1.908,0 3.814,-0.507 5.523,-1.521 l 28.638,-16.997 c 3.418,-2.029 5.524,-5.78 5.524,-9.837 v -33.997 c 0,-4.058 -2.106,-7.808 -5.524,-9.837"
           id="Fill-4"
           fill="#3e474a" />
        <path
           d="m 66.4428,65.8321 -7.131,4.268 c -0.189,0.11 -0.328,0.234 -0.329,0.461 v 1.866 c 0,0.228 0.153,0.323 0.342,0.212 l 7.241,-4.401 c 0.189,-0.11 0.218,-0.321 0.219,-0.548 v -1.646 c 0,-0.227 -0.153,-0.322 -0.342,-0.212"
           id="Fill-6"
           fill="#47b353" />
        <path
           d="m 51.258,50.1254 c 0.231,-0.117 0.421,0.027 0.424,0.329 l 0.024,2.467 c 1.033,-0.411 1.93,-0.521 2.743,-0.333 0.176,0.047 0.254,0.287 0.182,0.572 l -0.543,2.186 c -0.042,0.165 -0.135,0.332 -0.247,0.436 -0.047,0.046 -0.095,0.082 -0.143,0.106 -0.073,0.037 -0.145,0.049 -0.214,0.035 -0.371,-0.084 -1.253,-0.277 -2.641,0.426 -1.456,0.737 -1.965,2.002 -1.955,2.941 0.012,1.121 0.587,1.461 2.573,1.495 2.646,0.044 3.789,1.2 3.817,3.865 0.027,2.617 -1.37,5.427 -3.507,7.149 l 0.047,2.442 c 0.003,0.294 -0.188,0.631 -0.419,0.748 l -1.446,0.833 c -0.232,0.117 -0.422,-0.027 -0.425,-0.321 l -0.025,-2.402 c -1.239,0.515 -2.494,0.639 -3.296,0.317 -0.151,-0.059 -0.216,-0.282 -0.156,-0.536 l 0.524,-2.208 c 0.042,-0.174 0.134,-0.348 0.259,-0.459 0.044,-0.043 0.09,-0.076 0.136,-0.099 0.083,-0.042 0.164,-0.051 0.233,-0.025 0.864,0.291 1.969,0.155 3.032,-0.383 1.35,-0.683 2.253,-2.06 2.239,-3.428 -0.013,-1.241 -0.685,-1.757 -2.319,-1.769 -2.08,0.006 -4.019,-0.404 -4.051,-3.466 -0.026,-2.521 1.285,-5.144 3.36,-6.803 l -0.026,-2.465 c -0.003,-0.303 0.182,-0.636 0.42,-0.756 z"
           id="Fill-8"
           fill="#fefefe" />
      </g>
    </g>
  </g>
  <metadata
     id="metadata1">
    <rdf:RDF>
      <cc:Work
         rdf:about="">
        <dc:title>Page 1</dc:title>
      </cc:Work>
    </rdf:RDF>
  </metadata>
</svg>
