<?xml version="1.0" encoding="UTF-8" standalone="no"?>
<!-- Created with Inkscape (http://www.inkscape.org/) -->

<svg
   width="100"
   height="100"
   viewBox="0 0 26.458333 26.458333"
   version="1.1"
   id="svg1"
   xmlns="http://www.w3.org/2000/svg"
   xmlns:svg="http://www.w3.org/2000/svg">
  <defs
     id="defs1">
    <clipPath
       clipPathUnits="userSpaceOnUse"
       id="clipPath3">
      <path
         d="M 0,123 H 576 V 0 H 0 Z"
         transform="translate(-65.205101,-36.846698)"
         id="path3" />
    </clipPath>
  </defs>
  <path
     style="font-variation-settings:'wght' 270;fill:#f2682b;fill-opacity:1;stroke:none;stroke-width:0.264999;stroke-linecap:round;stroke-dasharray:0.265001, 0.795004"
     d="M 8.57921,8.9483989 C 6.6179831,12.029434 5.7669459,15.525348 5.8320029,17.735017 c 0.065057,2.209668 0.6484091,3.282582 2.5531167,5.187286 1.9047064,1.904703 0.629515,2.677615 0.1621035,3.039426 C 8.0798117,26.323541 6.3705212,27.337646 4.9478939,24.706517 3.342207,21.736818 3.365249,17.451343 5.0798607,12.38399 6.7944889,7.3166358 8.4456352,6.2031219 9.2755852,5.3672361 L 17.182748,21.091098 c -0.947201,1.03979 -1.807545,1.596499 -1.807545,1.596499 z"
     id="path10" />
  <path
     style="font-variation-settings:'wght' 270;fill:#f3a054;fill-opacity:1;stroke:none;stroke-width:0.264999;stroke-linecap:round;stroke-dasharray:0.265001, 0.795004"
     d="M 17.879124,17.509935 C 19.840351,14.4289 20.691388,10.932986 20.626331,8.7233165 20.561271,6.5136486 19.977922,5.4407346 18.073214,3.5360304 16.168508,1.6313275 17.443699,0.85841549 17.911111,0.4966045 c 0.467411,-0.36181199 2.176702,-1.37591694 3.599329,1.255212 1.605687,2.9696991 1.582645,7.255174 -0.131967,12.3225275 -1.714628,5.067354 -3.365775,6.180868 -4.195725,7.016754 L 9.2755852,5.3672356 C 10.222786,4.3274454 11.08313,3.7707364 11.08313,3.7707364 Z"
     id="path1" />
</svg>
